<svg width="304" height="51" viewBox="0 0 304 51" fill="none" xmlns="http://www.w3.org/2000/svg">
<g clip-path="url(#clip0_121_2027)">
<path d="M18.687 20.6962H14.0406V29.9863H9.39307V20.6934V2.11035H0.101074V20.6934V29.9863V39.2773V39.2803H9.39307V39.2773H14.0406V39.2803H18.687V39.2773H27.98V29.9863H18.687V20.6962Z" fill="#1A0C6D"/>
<path d="M32.6265 2.11035H27.981V11.4023H32.6265V2.11035Z" fill="#1A0C6D"/>
<path d="M23.3335 2.11035H18.687V2.11133H14.229V6.75684H18.687V20.6934H23.3335V20.6915H27.98V11.3994H23.3335V2.11035Z" fill="#1A0C6D"/>
</g>
<path d="M301.145 38.6444L292.549 39.7727V35.2596H292.281C291.045 37.9997 288.627 39.7189 285.242 39.7189C278.956 39.7189 274.39 34.0777 274.39 26.932C274.39 17.5299 281.052 13.2317 286.693 13.2317C289.326 13.2317 291.475 13.9302 292.549 14.951V6.6771C292.549 4.6355 291.743 3.8296 289.97 3.8296C289.648 3.8296 289.164 3.88332 288.251 3.99078L286.639 4.15196V2.64761C289.218 2.16407 294.268 0.982089 295.827 0.444824H297.116V34.1314C297.116 36.4953 298.459 37.1401 299.963 37.1401C300.34 37.1401 300.501 37.1401 301.145 37.0863V38.6444ZM287.123 35.4745C289.648 35.4745 291.421 34.6686 292.549 33.0031V21.3445C292.549 17.906 290.723 15.542 286.908 15.542C282.986 15.542 278.742 18.4432 278.742 25.3202C278.742 30.9078 281.911 35.4745 287.123 35.4745Z" fill="#1A0C6D"/>
<path d="M269.953 34.1304C269.953 36.4944 271.296 37.1391 272.801 37.1391C273.177 37.1391 273.338 37.1391 273.983 37.0854V38.6435L265.386 39.7717V35.205H265.118C263.775 37.5689 260.927 39.718 257.757 39.718C253.459 39.718 250.397 36.7631 250.397 31.9814V18.6035C250.397 16.2932 249.376 15.6485 247.603 15.5948L246.206 15.5411V13.9293H248.731C250.988 13.9293 253.567 13.8218 255.017 13.7144C254.963 14.4128 254.963 15.7022 254.963 18.5497V30.9069C254.963 34.6677 257.113 36.1183 259.853 36.1183C261.679 36.1183 263.99 34.9901 265.386 33.1096V18.4423C265.386 16.2395 264.097 15.6485 262.646 15.5948L260.927 15.5411V13.9293H264.151C265.709 13.9293 268.234 13.8218 269.953 13.7144V34.1304Z" fill="#1A0C6D"/>
<path d="M233.553 40.0425C226.729 40.0425 220.819 34.3475 220.819 26.6108C220.819 18.8205 226.729 13.1792 233.553 13.1792C240.376 13.1792 246.286 18.8205 246.286 26.6108C246.286 34.3475 240.376 40.0425 233.553 40.0425ZM233.553 37.5711C238.173 37.5711 240.967 33.058 240.967 26.6108C240.967 19.9487 238.066 15.6506 233.553 15.6506C228.878 15.6506 226.138 20.1637 226.138 26.6108C226.138 33.2192 229.039 37.5711 233.553 37.5711Z" fill="#1A0C6D"/>
<path d="M206.792 37.6773H207.437C210.123 37.6773 210.929 36.6028 210.929 34.3463V6.6771C210.929 4.58177 210.07 3.8296 208.189 3.8296C207.544 3.8296 206.792 3.93705 205.718 4.09823V2.59389C208.189 2.16407 212.756 0.982089 214.207 0.444824H215.496V34.3463C215.496 36.6028 216.248 37.6773 218.827 37.6773H219.633V39.2891H206.792V37.6773Z" fill="#1A0C6D"/>
<path d="M189.963 39.9873C180.239 39.9873 173.254 32.1432 173.254 21.5054C173.254 9.84672 181.582 1.3042 192.327 1.3042C197.969 1.3042 201.998 2.59364 204.308 3.99053V14.1986H202.428C202.374 8.23493 198.721 3.99053 192.059 3.99053C184.161 3.99053 178.09 9.90045 178.09 19.4101C178.09 28.7047 184.107 34.8833 191.683 34.8833C197.646 34.8833 201.407 31.3373 202.858 26.7706H204.684C203.664 33.0029 198.989 39.9873 189.963 39.9873Z" fill="#1A0C6D"/>
<path d="M144.229 37.6775H144.82C147.56 37.6775 148.366 36.603 148.366 34.4002V19.9477C148.366 17.6912 147.506 16.939 145.357 16.939H143.799V15.4884C145.787 15.0586 150.032 13.9841 151.697 13.4468H152.933V17.4763H153.201C154.921 15.0049 157.661 13.3394 160.992 13.3394C165.666 13.3394 168.245 16.2406 168.245 20.8073V34.239C168.245 36.4418 168.728 37.6775 171.307 37.6775H172.059V39.2893H160.078V37.6775H160.831C163.356 37.6775 163.678 36.4418 163.678 34.4002V22.4729C163.678 18.5508 161.744 16.8316 158.735 16.8316C156.64 16.8316 154.276 17.8524 152.933 19.6254V34.4002C152.933 36.6567 153.578 37.6775 156.049 37.6775H156.855V39.2893H144.229V37.6775Z" fill="#1A0C6D"/>
<path d="M124.942 23.5484C124.888 24.0857 124.888 24.5692 124.888 25.1065C124.942 30.8552 128.273 35.3683 133.646 35.3683C137.353 35.3683 139.663 32.9506 140.469 30.1031H141.973C141.49 34.0251 138.696 40.0425 132.088 40.0425C125.694 40.0425 121.02 34.6698 121.02 27.0407C121.02 18.9279 126.017 13.1792 132.625 13.1792C138.374 13.1792 142.027 17.2624 142.027 23.5484H124.942ZM131.873 15.4357C128.488 15.4357 125.855 18.1758 125.264 21.4531H137.675C137.568 18.8742 135.902 15.4357 131.873 15.4357Z" fill="#1A0C6D"/>
<path d="M92.7132 8.12459C90.7253 8.12459 89.4359 6.78143 89.4359 4.84727C89.4359 2.75194 91.2088 1.14014 93.1967 1.14014C95.1846 1.14014 96.4203 2.4833 96.4203 4.41746C96.4203 6.51279 94.7011 8.12459 92.7132 8.12459ZM85.2452 39.9844C83.1499 39.9844 82.129 38.5876 82.129 36.7608C82.129 36.0624 82.3439 35.2028 82.6663 34.2357L87.5554 20.2131C87.7703 19.5146 87.8778 19.1385 87.8778 18.8162C87.8778 18.1715 87.5017 17.7416 86.8033 17.7416C85.7825 17.7416 84.6005 18.9236 82.72 21.3951L81.6455 20.6966C83.2573 18.064 86.6421 13.1749 89.8119 13.1749C91.6924 13.1749 92.6057 14.3031 92.6057 15.8075C92.6057 16.2373 92.4445 16.882 92.2296 17.5805L87.1793 33.1612C87.0719 33.5373 86.9644 33.9671 86.9644 34.2357C86.9644 35.0416 87.448 35.5251 88.1464 35.5251C89.7582 35.5251 91.6386 33.6447 92.9818 31.0658L94.1638 31.7643C92.0147 36.0624 88.7374 39.9844 85.2452 39.9844Z" fill="#1A0C6D"/>
<path d="M118.06 17.6365C116.61 17.6365 115.428 17.0455 114.514 16.1859L114.246 16.4545C115.75 18.1201 116.61 20.2154 116.61 22.3645C116.61 27.361 112.58 31.5517 106.724 31.5517H104.091C102.157 31.5517 100.331 32.1427 100.331 33.5933C100.331 34.6678 101.298 35.2588 102.856 35.3663L111.559 36.0647C116.61 36.4945 119.027 38.9122 119.027 42.3507C119.027 47.7234 113.816 50.6246 106.724 50.6246C99.6322 50.6246 95.0654 48.1532 95.0654 44.1774C95.0654 41.8672 96.9996 39.933 99.9545 39.4495C98.0741 38.9122 96.4086 37.5691 96.4086 35.3126C96.4086 32.1427 99.8471 30.7458 102.48 30.5309C99.0949 29.4564 96.8384 25.9104 96.8384 22.3645C96.8384 17.4753 100.922 13.2847 106.724 13.2847C108.175 13.2847 109.196 13.4996 110.27 13.7682C111.345 13.9831 112.473 14.2517 114.192 14.2517H120.371V17.6365H118.06ZM106.724 29.2952C108.981 29.2952 111.936 27.6834 111.936 22.3645C111.936 17.0455 108.981 15.5412 106.724 15.5412C104.521 15.5412 101.513 17.0455 101.513 22.3645C101.513 27.6834 104.468 29.2952 106.724 29.2952ZM115.159 43.8014C115.159 42.1358 114.031 40.9001 111.13 40.6315L101.62 39.7719C100.008 40.2554 98.7188 41.4374 98.7188 43.4253C98.7188 46.3802 101.835 48.3144 107.1 48.3144C112.043 48.3144 115.159 46.5414 115.159 43.8014Z" fill="#1A0C6D"/>
<path d="M79.1909 29.1885L76.7195 39.2891H48.8892V37.6773H49.8025C53.5096 37.6773 53.9395 36.0118 53.9395 33.4866V7.91276C53.9395 5.38761 53.5096 3.72209 49.8025 3.72209H48.8892V2.11029H78.009V11.5662H76.1285C76.0748 8.82611 75.3764 7.10686 74.0869 6.08606C72.7438 5.06525 70.8096 4.68916 68.2307 4.68916H59.1509V19.4102H66.6189C70.5947 19.4102 71.9916 18.3357 72.0453 14.2525H73.8183V27.0931H72.0453C71.9379 23.2248 70.4872 21.9891 66.6189 21.9891H59.1509V33.4329C59.1509 35.4745 60.118 36.4416 62.1059 36.4416H67.4785C72.7975 36.4416 75.1614 34.4 77.2031 29.1885H79.1909Z" fill="#1A0C6D"/>
<defs>
<clipPath id="clip0_121_2027">
<rect width="32.5254" height="37.1699" fill="white" transform="translate(0.101074 2.11035)"/>
</clipPath>
</defs>
</svg>
